<svg xmlns="http://www.w3.org/2000/svg" version="1.1" xmlns:xlink="http://www.w3.org/1999/xlink" width="500" height="500"><svg xmlns="http://www.w3.org/2000/svg" version="1.1" xmlns:xlink="http://www.w3.org/1999/xlink" width="500" height="500"><svg width="500" height="500" viewBox="0 0 500 500" fill="none" xmlns="http://www.w3.org/2000/svg">
<circle cx="250" cy="250" r="250" fill="white"></circle>
<path d="M349.093 287.603C333.715 287.603 319.269 281.126 306.183 270.523L309.345 255.564L309.45 254.968C312.339 239.079 321.279 212.368 349.083 212.368C369.915 212.368 386.811 229.239 386.811 250.017C386.811 270.743 369.905 287.614 349.083 287.614L349.093 287.603ZM349.093 174.269C313.658 174.269 286.115 197.231 274.946 235.047C257.934 209.526 244.954 178.845 237.437 153H199.269V252.075C199.217 271.662 183.347 287.499 163.719 287.551C144.09 287.499 128.22 271.61 128.168 252.075V153H90V252.075C90 292.659 123.091 325.911 163.719 325.911C204.388 325.911 237.437 292.67 237.437 252.075V235.475C244.849 250.873 253.956 266.543 265.022 280.364L241.635 390H280.672L297.631 310.45C312.464 319.914 329.528 325.9 349.104 325.9C390.978 325.9 425 291.73 425 249.996C425 208.21 390.978 174.259 349.104 174.259L349.093 174.269Z" fill="white"></path>
<path d="M349.093 287.603C333.715 287.603 319.269 281.126 306.183 270.523L309.345 255.564L309.45 254.968C312.339 239.079 321.279 212.368 349.083 212.368C369.915 212.368 386.811 229.239 386.811 250.017C386.811 270.743 369.905 287.614 349.083 287.614L349.093 287.603ZM349.093 174.269C313.658 174.269 286.115 197.231 274.946 235.047C257.934 209.526 244.954 178.845 237.437 153H199.269V252.075C199.217 271.662 183.347 287.499 163.719 287.551C144.09 287.499 128.22 271.61 128.168 252.075V153H90V252.075C90 292.659 123.091 325.911 163.719 325.911C204.388 325.911 237.437 292.67 237.437 252.075V235.475C244.849 250.873 253.956 266.543 265.022 280.364L241.635 390H280.672L297.631 310.45C312.464 319.914 329.528 325.9 349.104 325.9C390.978 325.9 425 291.73 425 249.996C425 208.21 390.978 174.259 349.104 174.259L349.093 174.269Z" fill="#0B106F"></path>
</svg></svg><style>@media (prefers-color-scheme: light) { :root { filter: none; } }
@media (prefers-color-scheme: dark) { :root { filter: none; } }
</style></svg>